<mxfile host="app.diagrams.net" modified="2023-04-24T08:21:40.756Z" agent="5.0 (Macintosh; Intel Mac OS X 10_15_7) AppleWebKit/537.36 (KHTML, like Gecko) Chrome/112.0.0.0 Safari/537.36" version="20.6.0" etag="Ildu61gwNx2xKo3M4UFQ" type="github">
  <diagram id="euBMoRtAqdUJWhwp7Vbt" name="Page-1">
    <mxGraphModel dx="1002" dy="593" grid="1" gridSize="10" guides="1" tooltips="1" connect="1" arrows="1" fold="1" page="1" pageScale="1" pageWidth="850" pageHeight="1100" math="0" shadow="0">
      <root>
        <mxCell id="0" />
        <mxCell id="1" parent="0" />
        <mxCell id="WOWcPuz2EyGa8zievdHe-1" value="" style="whiteSpace=wrap;html=1;aspect=fixed;" vertex="1" parent="1">
          <mxGeometry x="172" y="248" width="210" height="210" as="geometry" />
        </mxCell>
        <mxCell id="WOWcPuz2EyGa8zievdHe-2" value="Edge Label" style="text;html=1;strokeColor=none;fillColor=none;align=center;verticalAlign=middle;whiteSpace=wrap;rounded=0;" vertex="1" parent="1">
          <mxGeometry x="227" y="300" width="110" height="30" as="geometry" />
        </mxCell>
        <mxCell id="WOWcPuz2EyGa8zievdHe-3" value="Property" style="text;html=1;strokeColor=none;fillColor=none;align=center;verticalAlign=middle;whiteSpace=wrap;rounded=0;" vertex="1" parent="1">
          <mxGeometry x="247" y="345" width="60" height="30" as="geometry" />
        </mxCell>
        <mxCell id="WOWcPuz2EyGa8zievdHe-4" value="Index" style="text;html=1;strokeColor=none;fillColor=none;align=center;verticalAlign=middle;whiteSpace=wrap;rounded=0;" vertex="1" parent="1">
          <mxGeometry x="244" y="388" width="60" height="30" as="geometry" />
        </mxCell>
        <mxCell id="WOWcPuz2EyGa8zievdHe-5" value="Vertex Label" style="text;html=1;strokeColor=none;fillColor=none;align=center;verticalAlign=middle;whiteSpace=wrap;rounded=0;" vertex="1" parent="1">
          <mxGeometry x="227" y="259" width="110" height="30" as="geometry" />
        </mxCell>
        <mxCell id="WOWcPuz2EyGa8zievdHe-6" value="" style="whiteSpace=wrap;html=1;aspect=fixed;" vertex="1" parent="1">
          <mxGeometry x="480" y="248" width="210" height="210" as="geometry" />
        </mxCell>
        <mxCell id="WOWcPuz2EyGa8zievdHe-7" value="Edge Label" style="text;html=1;strokeColor=none;fillColor=none;align=center;verticalAlign=middle;whiteSpace=wrap;rounded=0;" vertex="1" parent="1">
          <mxGeometry x="535" y="300" width="110" height="30" as="geometry" />
        </mxCell>
        <mxCell id="WOWcPuz2EyGa8zievdHe-8" value="Property" style="text;html=1;strokeColor=none;fillColor=none;align=center;verticalAlign=middle;whiteSpace=wrap;rounded=0;" vertex="1" parent="1">
          <mxGeometry x="555" y="345" width="60" height="30" as="geometry" />
        </mxCell>
        <mxCell id="WOWcPuz2EyGa8zievdHe-9" value="Index" style="text;html=1;strokeColor=none;fillColor=none;align=center;verticalAlign=middle;whiteSpace=wrap;rounded=0;" vertex="1" parent="1">
          <mxGeometry x="552" y="388" width="60" height="30" as="geometry" />
        </mxCell>
        <mxCell id="WOWcPuz2EyGa8zievdHe-10" value="Edge Label" style="text;html=1;strokeColor=none;fillColor=none;align=center;verticalAlign=middle;whiteSpace=wrap;rounded=0;" vertex="1" parent="1">
          <mxGeometry x="535" y="259" width="110" height="30" as="geometry" />
        </mxCell>
      </root>
    </mxGraphModel>
  </diagram>
</mxfile>
